Coordinates
version=1
nRows=28
nColumns=34
inDegrees=no

Units are S.I. units (second, meters, Newtons, ...)
If the header above contains a line with 'inDegrees', this indicates whether rotational values are in degrees (yes) or radians (no).

endheader
time	pelvis_tilt	pelvis_list	pelvis_rotation	pelvis_tx	pelvis_ty	pelvis_tz	hip_flexion_r	hip_adduction_r	hip_rotation_r	knee_angle_r	ankle_angle_r	subtalar_angle_r	mtp_angle_r	hip_flexion_l	hip_adduction_l	hip_rotation_l	knee_angle_l	ankle_angle_l	subtalar_angle_l	mtp_angle_l	lumbar_extension	lumbar_bending	lumbar_rotation	arm_flex_r	arm_add_r	arm_rot_r	elbow_flex_r	pro_sup_r	arm_flex_l	arm_add_l	arm_rot_l	elbow_flex_l	pro_sup_l
0.02	0.0171849	0.00425669	0.158014	-0.211014	0.884886	-0.219469	0.45245	-0.0524422	-0.294859	0.0237115	0.111064	0.185225	-0.0220561	-0.212425	-0.0536896	-0.32242	0.242978	0.526957	0.649795	-0.0220814	-0.213012	-0.0189767	-0.197098	-0.355174	-0.249155	0.118429	0.515045	1.84278	0.336072	-0.268354	0.120897	1.05143	1.82858
0.03	0.0178139	0.000350976	0.164992	-0.19455	0.892211	-0.218934	0.455328	-0.0533799	-0.317226	0.0394102	0.116258	0.185331	-0.0220506	-0.225328	-0.0654805	-0.317186	0.251922	0.537728	0.654451	-0.0220759	-0.211913	-0.0123758	-0.20273	-0.363251	-0.249943	0.106556	0.518472	1.83713	0.342075	-0.267755	0.115345	1.06696	1.83312
0.04	0.018668	-0.00452446	0.171012	-0.178054	0.898681	-0.218292	0.458047	-0.0525517	-0.334707	0.0579813	0.114312	0.177899	-0.0220451	-0.236741	-0.0778718	-0.309048	0.263508	0.542789	0.652244	-0.0220703	-0.210616	-0.00491958	-0.207585	-0.369235	-0.250584	0.0959909	0.520684	1.83156	0.344999	-0.266971	0.108997	1.08218	1.83604
0.05	0.0197487	-0.0103638	0.17607	-0.161531	0.904344	-0.217539	0.460601	-0.0499484	-0.347296	0.0793368	0.105322	0.163002	-0.0220396	-0.246617	-0.090856	-0.298031	0.277805	0.542086	0.643183	-0.0220648	-0.209141	0.00338302	-0.21165	-0.373116	-0.251073	0.0867324	0.521686	1.82608	0.344869	-0.266002	0.101876	1.09707	1.83735
0.06	0.0210558	-0.0171446	0.180155	-0.145	0.909255	-0.216668	0.462985	-0.0455563	-0.355032	0.103246	0.0896677	0.140938	-0.0220341	-0.254805	-0.104416	-0.284237	0.29503	0.535454	0.627352	-0.0220593	-0.207541	0.0125078	-0.214888	-0.374877	-0.251406	0.0787702	0.521508	1.82071	0.341764	-0.264846	0.0940576	1.11157	1.83706
0.07	0.0225792	-0.0248202	0.183261	-0.12849	0.913476	-0.215673	0.465204	-0.0393817	-0.358102	0.129349	0.0682103	0.112398	-0.0220286	-0.261002	-0.118527	-0.267897	0.315603	0.522596	0.605012	-0.0220537	-0.205898	0.0224079	-0.21724	-0.374503	-0.251576	0.0720767	0.520227	1.8155	0.335835	-0.263493	0.0856763	1.12556	1.83522
0.08	0.0242886	-0.0333139	0.185398	-0.112044	0.917081	-0.214552	0.46728	-0.0314859	-0.356921	0.157218	0.0424163	0.0785657	-0.0220231	-0.264736	-0.133147	-0.249378	0.340145	0.503092	0.57665	-0.0220482	-0.204309	0.0330064	-0.218631	-0.372	-0.251582	0.066602	0.51799	1.8105	0.327306	-0.261919	0.0769213	1.13883	1.83201
0.09	0.0261245	-0.0425156	0.186602	-0.0957126	0.920145	-0.213306	0.469248	-0.022011	-0.352159	0.186408	0.0143362	0.0410973	-0.0220176	-0.265381	-0.148203	-0.229138	0.36941	0.476469	0.542937	-0.0220427	-0.20286	0.0441922	-0.218984	-0.367408	-0.251432	0.0622705	0.515039	1.80581	0.31647	-0.260086	0.068023	1.15111	1.82772
0.1	0.027994	-0.0522867	0.186945	-0.0795537	0.922747	-0.211942	0.471125	-0.0111804	-0.344698	0.216461	-0.0135833	0.00198678	-0.0220121	-0.262215	-0.163581	-0.207663	0.40417	0.442299	0.50464	-0.0220372	-0.201603	0.0558222	-0.218239	-0.360814	-0.251152	0.0589811	0.511705	1.80155	0.303677	-0.257941	0.0592355	1.16206	1.82276
0.11	0.0297714	-0.0624736	0.186539	-0.0636231	0.924965	-0.210475	0.472881	0.000726925	-0.33554	0.246872	-0.0388147	-0.0366544	-0.0220066	-0.254501	-0.17912	-0.1854	0.445072	0.40035	0.462535	-0.0220316	-0.200536	0.0677332	-0.216364	-0.352357	-0.250784	0.056612	0.508408	1.79787	0.289312	-0.25543	0.0508206	1.1713	1.81763
0.12	0.0313081	-0.0729243	0.185537	-0.0479695	0.926875	-0.208926	0.474402	0.0134171	-0.32571	0.277021	-0.0591114	-0.0728221	-0.0220011	-0.241581	-0.194621	-0.16272	0.492491	0.350758	0.417349	-0.0220261	-0.199601	0.0797582	-0.213367	-0.342226	-0.250389	0.055027	0.505628	1.79492	0.273774	-0.252502	0.0430369	1.17843	1.81285
0.13	0.0324524	-0.0835027	0.184121	-0.0326312	0.928545	-0.207318	0.475473	0.0266194	-0.316166	0.306139	-0.0728244	-0.104811	-0.0219956	-0.222986	-0.209862	-0.139908	0.546409	0.294186	0.36975	-0.0220206	-0.198694	0.0917423	-0.209294	-0.330643	-0.250044	0.0540866	0.503866	1.79282	0.257464	-0.249129	0.0361321	1.18304	1.80889
0.14	0.0330769	-0.0940915	0.182494	-0.0176318	0.930037	-0.205681	0.475773	0.0401076	-0.307734	0.333314	-0.0791004	-0.131347	-0.0219901	-0.198518	-0.224606	-0.117171	0.606339	0.231955	0.320359	-0.022015	-0.197694	0.103549	-0.20423	-0.317851	-0.249836	0.0536614	0.503603	1.79168	0.240764	-0.245307	0.030337	1.18478	1.80608
0.15	0.0331058	-0.104583	0.180859	-0.00298106	0.931407	-0.204044	0.474905	0.0536995	-0.30105	0.357571	-0.0779255	-0.151641	-0.0219846	-0.168322	-0.238602	-0.0946586	0.671309	0.166085	0.269794	-0.0220095	-0.196498	0.115057	-0.198285	-0.304081	-0.249861	0.0536479	0.505252	1.7915	0.224032	-0.241073	0.0258556	1.1833	1.80459
0.16	0.0325358	-0.114861	0.179396	0.0113245	0.932707	-0.202431	0.472439	0.0672398	-0.296523	0.37799	-0.0700275	-0.165399	-0.0219791	-0.132895	-0.251577	-0.0724858	0.739915	0.0992297	0.2187	-0.022004	-0.19506	0.126137	-0.19159	-0.289529	-0.250211	0.0539829	0.509117	1.79225	0.207582	-0.236497	0.0228494	1.17837	1.80444
0.17	0.0314414	-0.124778	0.178235	0.0252992	0.933987	-0.200866	0.46797	0.0805778	-0.2943	0.393846	-0.0566771	-0.172776	-0.0219736	-0.0930615	-0.263234	-0.0507608	0.810426	0.0344757	0.167778	-0.0219985	-0.19341	0.136635	-0.184276	-0.274335	-0.250969	0.0546534	0.51536	1.79379	0.191681	-0.231685	0.0214185	1.16981	1.80545
0.18	0.0299641	-0.134145	0.177435	0.038965	0.935293	-0.19936	0.461174	0.0935496	-0.294254	0.404706	-0.0394421	-0.1743	-0.0219681	-0.0498903	-0.273247	-0.0296139	0.880936	-0.0249792	0.11779	-0.0219929	-0.191656	0.146352	-0.176466	-0.258565	-0.252203	0.0556979	0.523995	1.79597	0.176524	-0.226771	0.0215781	1.15754	1.80739
0.19	0.0282848	-0.142724	0.176966	0.0523498	0.936668	-0.19792	0.45185	0.10597	-0.295998	0.410486	-0.0199458	-0.170775	-0.0219626	-0.00458727	-0.281279	-0.00922566	0.949514	-0.0762244	0.0695536	-0.0219874	-0.189968	0.155032	-0.168258	-0.242212	-0.253952	0.0571961	0.534887	1.79859	0.162228	-0.221902	0.0232358	1.14157	1.80998
0.2	0.0265874	-0.150239	0.176698	0.0654837	0.938148	-0.196539	0.439947	0.117637	-0.298931	0.411435	0.000333121	-0.16317	-0.0219571	0.0416232	-0.287009	0.0101523	1.01435	-0.117033	0.0238985	-0.0219819	-0.188537	0.162369	-0.159727	-0.225211	-0.256224	0.0592482	0.547784	1.80147	0.148811	-0.217225	0.0261754	1.12204	1.81297
0.21	0.0250188	-0.156401	0.176416	0.0783974	0.939759	-0.1952	0.42556	0.128338	-0.302308	0.408079	0.0201976	-0.152507	-0.0219516	0.0876053	-0.290169	0.0281929	1.07387	-0.146168	-0.0183847	-0.0219764	-0.187543	0.168024	-0.150922	-0.207457	-0.258989	0.0619467	0.562355	1.80448	0.13619	-0.212879	0.0300517	1.09917	1.81619
0.22	0.0236527	-0.160928	0.175839	0.0911191	0.941517	-0.19388	0.408917	0.137871	-0.305341	0.401121	0.0388022	-0.139752	-0.0219461	0.132391	-0.29058	0.0445086	1.1268	-0.163521	-0.0566176	-0.0219708	-0.187118	0.171663	-0.141873	-0.18884	-0.262178	0.0653476	0.578244	1.80755	0.124179	-0.208973	0.0344002	1.0733	1.81958
0.23	0.0225127	-0.1636	0.174658	0.103681	0.943421	-0.192553	0.390338	0.14606	-0.307308	0.391329	0.0556632	-0.125731	-0.0219406	0.175233	-0.288181	0.0586861	1.1722	-0.170056	-0.0903091	-0.0219653	-0.187312	0.17299	-0.132614	-0.169267	-0.265689	0.0694494	0.595112	1.81065	0.112508	-0.205588	0.0386631	1.04485	1.82316
0.24	0.0215644	-0.16428	0.172578	0.116111	0.94546	-0.191189	0.370188	0.152771	-0.30765	0.379432	0.0706194	-0.111053	-0.0219351	0.215614	-0.283057	0.0703385	1.20946	-0.167569	-0.119215	-0.0219598	-0.188095	0.171799	-0.123193	-0.148684	-0.269396	0.0741858	0.612675	1.81382	0.100846	-0.202762	0.0422293	1.01433	1.82704
0.25	0.0207313	-0.162942	0.169363	0.128433	0.947606	-0.189766	0.348829	0.157941	-0.306047	0.366045	0.0837628	-0.0960836	-0.0219296	0.253238	-0.275443	0.07916	1.23828	-0.158337	-0.143366	-0.0219543	-0.18937	0.168012	-0.113692	-0.127083	-0.27316	0.0794383	0.630726	1.81712	0.0888407	-0.200491	0.0444829	0.982278	1.83129
0.26	0.0199196	-0.159686	0.16487	0.14067	0.949825	-0.188268	0.326583	0.161586	-0.302459	0.351625	0.0953549	-0.0809334	-0.0219241	0.287991	-0.265715	0.0849752	1.25865	-0.144733	-0.163055	-0.0219488	-0.190996	0.161713	-0.104233	-0.104499	-0.276849	0.0850608	0.649134	1.82058	0.0761599	-0.198736	0.0448558	0.949237	1.83597
0.27	0.0190402	-0.154734	0.159066	0.15284	0.952071	-0.186689	0.303715	0.163805	-0.297117	0.336467	0.105746	-0.0654911	-0.0219187	0.319909	-0.254358	0.0877678	1.27074	-0.128896	-0.178778	-0.0219432	-0.192812	0.153142	-0.0949686	-0.081002	-0.280352	0.0909146	0.667837	1.82422	0.0625318	-0.197421	0.0428745	0.915727	1.841
0.28	0.0180241	-0.148406	0.152019	0.164959	0.954296	-0.185033	0.280432	0.164768	-0.290472	0.320737	0.115308	-0.0494812	-0.0219132	0.349128	-0.241923	0.087684	1.27489	-0.112507	-0.191142	-0.0219377	-0.19466	0.142677	-0.0860702	-0.0566784	-0.283589	0.0969029	0.686823	1.828	0.0477785	-0.196445	0.0381978	0.882199	1.84621
0.29	0.016828	-0.141085	0.143882	0.177036	0.95645	-0.183314	0.256903	0.164698	-0.283108	0.304523	0.12438	-0.0325489	-0.0219077	0.375838	-0.228979	0.0850062	1.27153	-0.0966912	-0.20076	-0.0219322	-0.196402	0.130793	-0.077703	-0.0316216	-0.286523	0.102997	0.706113	1.83182	0.0318345	-0.195694	0.0306377	0.849011	1.85131
